<?xml version="1.0" encoding="UTF-8" standalone="no"?>
<svg
   viewBox="0 0 853.15411 230.26981"
   version="1.1"
   id="svg4"
   width="853.15411"
   height="230.26982"
   xmlns="http://www.w3.org/2000/svg"
   xmlns:svg="http://www.w3.org/2000/svg">
  <defs
     id="defs8" />
  <path
     id="path30764"
     d="M 575.24964,67.224549 V 162.98649 H 641.2795 V 145.03945 H 595.87705 V 67.224549 Z m 75.62429,0 v 95.761941 h 20.62741 V 67.224549 Z m 29.55174,0 c 5.80391,15.982631 11.74207,31.966986 17.81385,47.949621 6.16106,15.98262 12.41069,31.91897 18.75033,47.81232 h 22.234 c 6.33965,-15.89335 12.54535,-31.8297 18.61713,-47.81232 6.16106,-15.982635 12.14313,-31.96699 17.94704,-47.949621 h -22.09875 c -4.10737,12.500382 -8.26052,24.956369 -12.45719,37.367461 -4.19667,12.4111 -8.48154,24.82318 -12.85678,37.23427 -4.37525,-12.41109 -8.66216,-24.82317 -12.85883,-37.23427 C 711.3198,92.180918 707.1687,79.724931 703.06132,67.224549 Z m 104.28669,0 v 95.761941 h 68.44178 v -17.1417 H 805.33772 V 122.2706 h 40.18104 V 105.12891 H 805.33772 V 84.368294 h 45.2713 V 67.224549 Z"
     style="fill:#00e5df;stroke-width:1.0492" />
  <path
     d="m 12.879693,169.94016 v 22.02903 H 0 v -60.58272 h 22.114426 c 7.964091,0 14.079001,1.6669 18.344728,5.00067 4.263808,3.33314 6.396347,8.10642 6.397627,14.31983 0.330246,7.35682 -4.066831,14.10529 -10.930082,16.77507 2.541915,4.01051 5.055355,8.03542 7.540341,12.07471 2.484985,4.0393 4.9706,8.17677 7.456866,12.41244 H 35.926699 c -4.06744,-7.45687 -8.275598,-14.79987 -12.624475,-22.02903 z m 0,-10.25176 h 8.47292 c 4.009871,0 7.060301,-0.7199 9.15126,-2.15972 2.089049,-1.44302 3.133894,-3.7166 3.134534,-6.82075 0,-3.10799 -1.030775,-5.39659 -3.092314,-6.86584 -2.06282,-1.46796 -5.09917,-2.20194 -9.10904,-2.20194 h -8.55736 z m 89.048707,32.28079 c -1.46987,-4.46018 -2.93848,-8.83752 -4.405806,-13.13203 H 72.951018 c -1.469886,4.34824 -2.938481,8.72558 -4.405807,13.13203 H 54.565025 c 3.841012,-10.61795 7.753023,-20.98355 11.736023,-31.09682 3.981731,-10.10879 8.006311,-19.93711 12.073751,-29.48493 h 14.064616 c 4.179378,10.05506 8.260575,20.15265 12.243575,30.29279 3.98301,10.13949 7.83841,20.23613 11.5662,30.28992 H 101.9284 Z M 76.679451,167.99151 h 17.031246 c -1.356026,-3.95486 -2.753947,-7.89437 -4.193773,-11.81853 -1.440456,-3.92608 -2.866842,-7.78149 -4.279158,-11.56621 -2.938481,7.73703 -5.791252,15.53194 -8.558315,23.38474 z m 46.941219,-36.60504 h 23.13144 c 6.38227,0 11.84732,1.18589 16.39512,3.55766 4.44401,2.27234 8.07106,5.8709 10.37841,10.29684 2.37304,4.48896 3.55892,9.9249 3.55764,16.30782 0,6.38484 -1.19996,11.84987 -3.59986,16.39512 -2.31032,4.45539 -5.93308,8.09389 -10.37841,10.42349 -4.51966,2.40247 -9.99877,3.60243 -16.43733,3.59987 h -23.04701 z m 22.36867,49.39934 c 5.6467,0 9.98184,-1.65281 13.00539,-4.95845 3.02036,-3.30244 4.53117,-8.06165 4.53245,-14.27761 0,-6.15393 -1.48267,-10.85589 -4.44803,-14.10587 -2.96599,-3.24871 -7.30143,-4.87242 -13.00634,-4.87114 h -9.40551 v 38.21307 z m 41.43109,-49.39934 h 13.0476 v 60.58272 h -13.0476 z m 53.46453,-1.27127 c 4.23992,-0.0595 8.4524,0.68875 12.41244,2.20482 3.58353,1.39074 6.82169,3.54429 9.48994,6.31129 2.69025,2.84423 4.7543,6.2209 6.05895,9.91209 2.82337,8.48472 2.82337,17.65558 0,26.14029 -1.30271,3.71718 -3.36628,7.12183 -6.05895,9.99654 -2.65746,2.79078 -5.89773,4.96112 -9.48994,6.35637 -8.01487,2.93596 -16.81096,2.93596 -24.82584,0 -3.59185,-1.3954 -6.83177,-3.56572 -9.48898,-6.35637 -2.69301,-2.87445 -4.75663,-6.27919 -6.05895,-9.99654 -2.82337,-8.48471 -2.82337,-17.65557 0,-26.14029 1.30341,-3.69179 3.3676,-7.0687 6.05895,-9.91209 2.66754,-2.76741 5.90549,-4.92102 9.48898,-6.31129 3.96035,-1.51617 8.17317,-2.26443 12.4134,-2.20482 z m 0,51.77014 c 3.13776,0.085 6.23129,-0.75417 8.89604,-2.41302 2.5419,-1.68046 4.51987,-4.08632 5.67709,-6.90518 2.59692,-7.05535 2.59692,-14.80482 0,-21.86017 -1.14959,-2.81301 -3.13013,-5.20827 -5.67709,-6.86584 -5.50947,-3.16114 -12.28261,-3.16114 -17.79208,0 -2.5479,1.65651 -4.52872,4.05211 -5.67708,6.86584 -2.59943,7.05489 -2.59943,14.80527 0,21.86017 1.1563,2.81942 3.13446,5.22552 5.67708,6.90518 2.6646,1.65922 5.75823,2.49836 8.89604,2.41302 z M 0,38.420319 V 115.21874 H 76.79842 V 38.420319 Z m 53.55664,54.198516 c -1.420993,1.937228 -3.368013,3.426043 -5.60992,4.289712 -2.790187,1.072199 -5.763963,1.585324 -8.752123,1.51018 H 21.983937 V 55.219374 h 16.211875 c 4.777433,0 8.478041,0.956575 11.101825,2.869723 2.621917,1.906927 4.102557,5.009709 3.935671,8.247454 0.04658,1.879919 -0.442206,3.734349 -1.409441,5.347029 -1.014408,1.57553 -2.462858,2.824048 -4.170734,3.595069 2.322549,0.691106 4.36792,2.097215 5.844982,4.018188 1.38595,1.944858 2.097601,4.289727 2.026371,6.67683 0.06285,2.367365 -0.626057,4.693764 -1.967846,6.645168 z M 42.571874,71.502244 c 1.211698,-1.023514 1.874551,-2.555136 1.791297,-4.139079 0,-3.423327 -2.330197,-5.13499 -6.990571,-5.13499 H 30.735106 V 72.982679 H 37.3726 c 1.852571,0.126722 3.691323,-0.39684 5.199274,-1.480435 z m -4.082475,8.247454 h -7.753338 v 11.661187 h 7.636289 c 2.120232,0.131532 4.230339,-0.384785 6.0503,-1.480435 1.395539,-0.957093 2.195742,-2.568751 2.114639,-4.25901 0,-3.947828 -2.682633,-5.921742 -8.04789,-5.921742 z M 95.998024,38.420319 V 115.21874 H 172.79645 V 38.420319 Z m 53.556646,54.198516 c -1.42099,1.937228 -3.36801,3.426043 -5.60992,4.289712 -2.79018,1.072224 -5.76397,1.58535 -8.75213,1.51018 H 117.98196 V 55.219374 h 16.21188 c 4.77679,0 8.4774,0.956575 11.10182,2.869723 2.62192,1.906928 4.10257,5.00971 3.93567,8.247454 0.0466,1.879919 -0.4422,3.734349 -1.40943,5.347029 -1.01442,1.575531 -2.46286,2.824048 -4.17074,3.595069 2.32255,0.691107 4.36792,2.097216 5.84498,4.018188 1.38595,1.944857 2.0976,4.289726 2.02637,6.67683 0.0628,2.367365 -0.62605,4.693764 -1.96784,6.645168 z M 138.5699,71.502244 c 1.2117,-1.023514 1.87455,-2.555136 1.7913,-4.139079 0,-3.423327 -2.33019,-5.13499 -6.99058,-5.13499 h -6.63749 v 10.754504 h 6.63749 c 1.85259,0.126722 3.69133,-0.39684 5.19928,-1.480435 z m -4.08248,8.247454 h -7.75332 v 11.661187 h 7.63627 c 2.12025,0.131533 4.23035,-0.384785 6.05031,-1.480435 1.39554,-0.957094 2.19574,-2.568752 2.11463,-4.25901 0,-3.948468 -2.68263,-5.922382 -8.04789,-5.921742 z m 57.50864,35.469042 h 76.79842 V 38.420319 h -76.79842 z m 55.157,-19.538291 c -1.96009,1.052182 -4.05151,1.838804 -6.21917,2.339144 -2.43685,0.581293 -4.93439,0.86957 -7.43959,0.858711 -3.17401,0.04636 -6.33151,-0.464783 -9.32876,-1.510178 -5.3348,-1.821808 -9.53802,-5.991781 -11.40213,-11.311946 -1.05513,-2.974241 -1.5714,-6.112809 -1.52457,-9.268312 -0.0454,-3.102545 0.49261,-6.185993 1.58597,-9.089853 1.00321,-2.623186 2.56368,-4.997448 4.57371,-6.95891 2.04783,-1.969501 4.48945,-3.483124 7.16423,-4.441306 3.00411,-1.063144 6.1731,-1.584541 9.35946,-1.539921 2.287,-0.01193 4.56791,0.236567 6.79869,0.740696 2.06444,0.468234 4.06173,1.194492 5.94476,2.161647 v 8.409602 c -1.67212,-1.106858 -3.50157,-1.955275 -5.42666,-2.516644 -2.00128,-0.57927 -4.07532,-0.868453 -6.15872,-0.85871 -2.62787,-0.07609 -5.23433,0.493168 -7.5912,1.657934 -2.05784,1.069406 -3.73897,2.743173 -4.8174,4.796303 -1.18143,2.368773 -1.75764,4.993336 -1.67713,7.639162 -0.0769,2.648231 0.4769,5.276802 1.61572,7.668905 1.02395,2.058663 2.6652,3.7462 4.69459,4.827005 2.3131,1.165383 4.88042,1.735237 7.46935,1.657935 4.37323,0.02805 8.66493,-1.183514 12.3779,-3.494327 v 8.233063 z"
     id="path2"
     style="stroke-width:1.0492" />
  <path
     d="m 422.05551,0 c -46.56743,0 -88.54985,28.051729 -106.36944,71.073655 -17.81953,43.021835 -7.96668,92.540765 24.96132,125.468775 32.92801,32.928 82.44694,42.78085 125.46878,24.96132 43.02192,-17.81958 71.07365,-59.80201 71.07365,-106.36944 C 537.18982,51.547386 485.64244,0 422.05551,0 Z m 48.93017,173.10731 c -5.07167,7.49653 -12.3843,13.22926 -21.93789,17.19819 -9.55487,3.9683 -21.09324,5.95245 -34.61513,5.95245 -7.94806,0.0249 -15.88178,-0.67617 -23.70231,-2.09449 -7.61308,-1.40794 -15.04482,-3.66291 -22.15664,-6.72289 v -27.78095 c 13.81727,6.40331 28.86562,9.7137 44.09451,9.70007 10.58469,0 18.63258,-2.02125 24.14368,-6.06374 5.51301,-4.03993 8.26824,-9.80912 8.26568,-17.30757 0,-15.28471 -11.75842,-22.92803 -35.27523,-22.92995 -5.73178,0 -11.42804,0.25777 -17.08882,0.77332 -5.65949,0.51618 -12.08974,1.36082 -19.29075,2.53391 l 7.4962,-87.08855 h 89.90646 v 27.101657 h -62.27327 l -2.74211,32.867966 c 3.32986,-0.570552 6.686,-0.9753 10.05603,-1.212748 3.1598,-0.220673 6.0631,-0.33069 8.7099,-0.330051 11.16867,0 20.79519,1.91059 28.87953,5.731766 7.75627,3.52905 14.25453,9.33558 18.63065,16.64746 4.33289,7.27585 6.50092,15.98417 6.50412,26.12494 6.4e-4,10.44012 -2.53422,19.40653 -7.60461,26.89921 z"
     fill="#00e5df"
     id="path825"
     style="stroke-width:1.0492" />
</svg>
